<svg width="924" height="236" viewBox="0 0 924 236" fill="none" xmlns="http://www.w3.org/2000/svg">
<path d="M273.42 171V101.182H295.648V171H273.42ZM284.557 93.0455C281.436 93.0455 278.754 92.0152 276.511 89.9545C274.269 87.8636 273.148 85.3485 273.148 82.4091C273.148 79.5 274.269 77.0151 276.511 74.9545C278.754 72.8636 281.436 71.8182 284.557 71.8182C287.708 71.8182 290.39 72.8636 292.602 74.9545C294.845 77.0151 295.966 79.5 295.966 82.4091C295.966 85.3485 294.845 87.8636 292.602 89.9545C290.39 92.0152 287.708 93.0455 284.557 93.0455ZM332.023 131.182V171H309.795V101.182H330.932V114H331.705C333.25 109.727 335.886 106.379 339.614 103.955C343.341 101.5 347.78 100.273 352.932 100.273C357.841 100.273 362.098 101.379 365.705 103.591C369.341 105.773 372.159 108.833 374.159 112.773C376.189 116.682 377.189 121.258 377.159 126.5V171H354.932V130.864C354.962 126.985 353.977 123.955 351.977 121.773C350.008 119.591 347.265 118.5 343.75 118.5C341.417 118.5 339.356 119.015 337.568 120.045C335.811 121.045 334.447 122.485 333.477 124.364C332.538 126.242 332.053 128.515 332.023 131.182ZM451.875 122.5L431.466 123.045C431.254 121.591 430.678 120.303 429.739 119.182C428.799 118.03 427.572 117.136 426.057 116.5C424.572 115.833 422.845 115.5 420.875 115.5C418.299 115.5 416.102 116.015 414.284 117.045C412.496 118.076 411.617 119.47 411.648 121.227C411.617 122.591 412.163 123.773 413.284 124.773C414.436 125.773 416.481 126.576 419.42 127.182L432.875 129.727C439.845 131.061 445.027 133.273 448.42 136.364C451.845 139.455 453.572 143.545 453.602 148.636C453.572 153.424 452.148 157.591 449.33 161.136C446.542 164.682 442.723 167.439 437.875 169.409C433.027 171.348 427.481 172.318 421.239 172.318C411.269 172.318 403.405 170.273 397.648 166.182C391.92 162.061 388.648 156.545 387.83 149.636L409.784 149.091C410.269 151.636 411.527 153.576 413.557 154.909C415.587 156.242 418.178 156.909 421.33 156.909C424.178 156.909 426.496 156.379 428.284 155.318C430.072 154.258 430.981 152.848 431.011 151.091C430.981 149.515 430.284 148.258 428.92 147.318C427.557 146.348 425.42 145.591 422.511 145.045L410.33 142.727C403.33 141.455 398.117 139.106 394.693 135.682C391.269 132.227 389.572 127.833 389.602 122.5C389.572 117.833 390.814 113.848 393.33 110.545C395.845 107.212 399.42 104.667 404.057 102.909C408.693 101.152 414.163 100.273 420.466 100.273C429.92 100.273 437.375 102.258 442.83 106.227C448.284 110.167 451.299 115.591 451.875 122.5ZM503.955 101.182V117.545H459.909V101.182H503.955ZM469.136 84.4545H491.364V149.045C491.364 150.409 491.576 151.515 492 152.364C492.455 153.182 493.106 153.773 493.955 154.136C494.803 154.47 495.818 154.636 497 154.636C497.848 154.636 498.742 154.561 499.682 154.409C500.652 154.227 501.379 154.076 501.864 153.955L505.227 170C504.167 170.303 502.667 170.682 500.727 171.136C498.818 171.591 496.53 171.879 493.864 172C488.652 172.242 484.182 171.636 480.455 170.182C476.758 168.697 473.924 166.394 471.955 163.273C470.015 160.152 469.076 156.227 469.136 151.5V84.4545ZM534.977 172.182C530.523 172.182 526.568 171.439 523.114 169.955C519.689 168.439 516.977 166.167 514.977 163.136C513.008 160.076 512.023 156.242 512.023 151.636C512.023 147.758 512.705 144.485 514.068 141.818C515.432 139.152 517.311 136.985 519.705 135.318C522.098 133.652 524.856 132.394 527.977 131.545C531.098 130.667 534.432 130.076 537.977 129.773C541.947 129.409 545.144 129.03 547.568 128.636C549.992 128.212 551.75 127.621 552.841 126.864C553.962 126.076 554.523 124.97 554.523 123.545V123.318C554.523 120.985 553.72 119.182 552.114 117.909C550.508 116.636 548.341 116 545.614 116C542.674 116 540.311 116.636 538.523 117.909C536.735 119.182 535.598 120.939 535.114 123.182L514.614 122.455C515.22 118.212 516.78 114.424 519.295 111.091C521.841 107.727 525.326 105.091 529.75 103.182C534.205 101.242 539.553 100.273 545.795 100.273C550.25 100.273 554.356 100.803 558.114 101.864C561.871 102.894 565.144 104.409 567.932 106.409C570.72 108.379 572.871 110.803 574.386 113.682C575.932 116.561 576.705 119.848 576.705 123.545V171H555.795V161.273H555.25C554.008 163.636 552.417 165.636 550.477 167.273C548.568 168.909 546.311 170.136 543.705 170.955C541.129 171.773 538.22 172.182 534.977 172.182ZM541.841 157.636C544.235 157.636 546.386 157.152 548.295 156.182C550.235 155.212 551.78 153.879 552.932 152.182C554.083 150.455 554.659 148.455 554.659 146.182V139.545C554.023 139.879 553.25 140.182 552.341 140.455C551.462 140.727 550.492 140.985 549.432 141.227C548.371 141.47 547.28 141.682 546.159 141.864C545.038 142.045 543.962 142.212 542.932 142.364C540.841 142.697 539.053 143.212 537.568 143.909C536.114 144.606 534.992 145.515 534.205 146.636C533.447 147.727 533.068 149.03 533.068 150.545C533.068 152.848 533.886 154.606 535.523 155.818C537.189 157.03 539.295 157.636 541.841 157.636ZM622.886 172.318C615.553 172.318 609.25 170.818 603.977 167.818C598.735 164.788 594.689 160.576 591.841 155.182C589.023 149.758 587.614 143.47 587.614 136.318C587.614 129.136 589.023 122.848 591.841 117.455C594.689 112.03 598.735 107.818 603.977 104.818C609.25 101.788 615.553 100.273 622.886 100.273C630.22 100.273 636.508 101.788 641.75 104.818C647.023 107.818 651.068 112.03 653.886 117.455C656.735 122.848 658.159 129.136 658.159 136.318C658.159 143.47 656.735 149.758 653.886 155.182C651.068 160.576 647.023 164.788 641.75 167.818C636.508 170.818 630.22 172.318 622.886 172.318ZM623.023 155.545C625.689 155.545 627.947 154.727 629.795 153.091C631.644 151.455 633.053 149.182 634.023 146.273C635.023 143.364 635.523 140 635.523 136.182C635.523 132.303 635.023 128.909 634.023 126C633.053 123.091 631.644 120.818 629.795 119.182C627.947 117.545 625.689 116.727 623.023 116.727C620.265 116.727 617.932 117.545 616.023 119.182C614.144 120.818 612.705 123.091 611.705 126C610.735 128.909 610.25 132.303 610.25 136.182C610.25 140 610.735 143.364 611.705 146.273C612.705 149.182 614.144 151.455 616.023 153.091C617.932 154.727 620.265 155.545 623.023 155.545ZM669.545 171V101.182H691.136V113.909H691.864C693.136 109.303 695.212 105.879 698.091 103.636C700.97 101.364 704.318 100.227 708.136 100.227C709.167 100.227 710.227 100.303 711.318 100.455C712.409 100.576 713.424 100.773 714.364 101.045V120.364C713.303 120 711.909 119.712 710.182 119.5C708.485 119.288 706.97 119.182 705.636 119.182C703 119.182 700.621 119.773 698.5 120.955C696.409 122.106 694.758 123.727 693.545 125.818C692.364 127.879 691.773 130.303 691.773 133.091V171H669.545ZM745.295 172C740.144 172 735.462 170.667 731.25 168C727.038 165.333 723.674 161.333 721.159 156C718.644 150.667 717.386 144.045 717.386 136.136C717.386 127.924 718.689 121.167 721.295 115.864C723.902 110.561 727.311 106.636 731.523 104.091C735.765 101.545 740.326 100.273 745.205 100.273C748.871 100.273 752.008 100.909 754.614 102.182C757.22 103.424 759.371 105.03 761.068 107C762.765 108.97 764.053 111.015 764.932 113.136H765.386V77.9091H787.614V171H765.614V159.682H764.932C763.992 161.833 762.659 163.848 760.932 165.727C759.205 167.606 757.038 169.121 754.432 170.273C751.856 171.424 748.811 172 745.295 172ZM753.023 154.682C755.72 154.682 758.023 153.924 759.932 152.409C761.841 150.864 763.311 148.697 764.341 145.909C765.371 143.121 765.886 139.848 765.886 136.091C765.886 132.273 765.371 128.985 764.341 126.227C763.341 123.47 761.871 121.348 759.932 119.864C758.023 118.379 755.72 117.636 753.023 117.636C750.265 117.636 747.932 118.394 746.023 119.909C744.114 121.424 742.659 123.561 741.659 126.318C740.689 129.076 740.205 132.333 740.205 136.091C740.205 139.848 740.705 143.121 741.705 145.909C742.705 148.697 744.144 150.864 746.023 152.409C747.932 153.924 750.265 154.682 753.023 154.682ZM834.307 172.318C827.004 172.318 820.701 170.879 815.398 168C810.125 165.091 806.064 160.955 803.216 155.591C800.398 150.197 798.989 143.788 798.989 136.364C798.989 129.152 800.413 122.848 803.261 117.455C806.11 112.03 810.125 107.818 815.307 104.818C820.489 101.788 826.595 100.273 833.625 100.273C838.595 100.273 843.14 101.045 847.261 102.591C851.383 104.136 854.943 106.424 857.943 109.455C860.943 112.485 863.277 116.227 864.943 120.682C866.61 125.106 867.443 130.182 867.443 135.909V141.455H806.761V128.545H846.761C846.731 126.182 846.17 124.076 845.08 122.227C843.989 120.379 842.489 118.939 840.58 117.909C838.701 116.848 836.534 116.318 834.08 116.318C831.595 116.318 829.367 116.879 827.398 118C825.428 119.091 823.867 120.591 822.716 122.5C821.564 124.379 820.958 126.515 820.898 128.909V142.045C820.898 144.894 821.458 147.394 822.58 149.545C823.701 151.667 825.292 153.318 827.352 154.5C829.413 155.682 831.867 156.273 834.716 156.273C836.686 156.273 838.473 156 840.08 155.455C841.686 154.909 843.064 154.106 844.216 153.045C845.367 151.985 846.231 150.682 846.807 149.136L867.216 149.727C866.367 154.303 864.504 158.288 861.625 161.682C858.777 165.045 855.034 167.667 850.398 169.545C845.761 171.394 840.398 172.318 834.307 172.318ZM878.795 171V101.182H900.386V113.909H901.114C902.386 109.303 904.462 105.879 907.341 103.636C910.22 101.364 913.568 100.227 917.386 100.227C918.417 100.227 919.477 100.303 920.568 100.455C921.659 100.576 922.674 100.773 923.614 101.045V120.364C922.553 120 921.159 119.712 919.432 119.5C917.735 119.288 916.22 119.182 914.886 119.182C912.25 119.182 909.871 119.773 907.75 120.955C905.659 122.106 904.008 123.727 902.795 125.818C901.614 127.879 901.023 130.303 901.023 133.091V171H878.795Z" fill="url(#paint0_linear_0_1)"/>
<ellipse cx="117" cy="118" rx="117" ry="118" fill="url(#paint1_linear_0_1)"/>
<path d="M147.752 33L69 132.905H105.327L91.2483 211L170 111.095H133.673L147.752 33Z" fill="white"/>
<defs>
<linearGradient id="paint0_linear_0_1" x1="231.348" y1="141.793" x2="1510.04" y2="141.793" gradientUnits="userSpaceOnUse">
<stop stop-color="#BD00FF"/>
<stop offset="1" stop-color="#FF006B" stop-opacity="0"/>
</linearGradient>
<linearGradient id="paint1_linear_0_1" x1="52.0772" y1="206.588" x2="261.116" y2="36.0603" gradientUnits="userSpaceOnUse">
<stop stop-color="#A855F7"/>
<stop offset="1" stop-color="#EC4899" stop-opacity="0"/>
</linearGradient>
</defs>
</svg>
