<svg id="visual" viewBox="0 0 900 600" width="900" height="600" xmlns="http://www.w3.org/2000/svg" xmlns:xlink="http://www.w3.org/1999/xlink" version="1.1"><path d="M0 370L129 370L129 285L257 285L257 346L386 346L386 318L514 318L514 293L643 293L643 342L771 342L771 379L900 379L900 280L900 0L900 0L771 0L771 0L643 0L643 0L514 0L514 0L386 0L386 0L257 0L257 0L129 0L129 0L0 0Z" fill="#9900ff"></path><path d="M0 165L129 165L129 172L257 172L257 265L386 265L386 217L514 217L514 183L643 183L643 246L771 246L771 247L900 247L900 287L900 0L900 0L771 0L771 0L643 0L643 0L514 0L514 0L386 0L386 0L257 0L257 0L129 0L129 0L0 0Z" fill="#7700c6"></path><path d="M0 144L129 144L129 154L257 154L257 74L386 74L386 74L514 74L514 153L643 153L643 155L771 155L771 107L900 107L900 144L900 0L900 0L771 0L771 0L643 0L643 0L514 0L514 0L386 0L386 0L257 0L257 0L129 0L129 0L0 0Z" fill="#560090"></path></svg>