<?xml version="1.0" standalone="no"?>
<svg xmlns:xlink="http://www.w3.org/1999/xlink" id="wave" style="transform:rotate(0deg); transition: 0.3s" viewBox="0 0 1440 490" version="1.1" xmlns="http://www.w3.org/2000/svg"><defs><linearGradient id="sw-gradient-0" x1="0" x2="0" y1="1" y2="0"><stop stop-color="rgba(139.195, 0, 223.495, 1)" offset="0%"/><stop stop-color="rgba(80.301, 11, 255, 1)" offset="100%"/></linearGradient></defs><path style="transform:translate(0, 0px); opacity:1" fill="url(#sw-gradient-0)" d="M0,245L17.1,228.7C34.3,212,69,180,103,147C137.1,114,171,82,206,81.7C240,82,274,114,309,163.3C342.9,212,377,278,411,302.2C445.7,327,480,310,514,285.8C548.6,261,583,229,617,179.7C651.4,131,686,65,720,73.5C754.3,82,789,163,823,204.2C857.1,245,891,245,926,253.2C960,261,994,278,1029,285.8C1062.9,294,1097,294,1131,245C1165.7,196,1200,98,1234,73.5C1268.6,49,1303,98,1337,155.2C1371.4,212,1406,278,1440,318.5C1474.3,359,1509,376,1543,326.7C1577.1,278,1611,163,1646,171.5C1680,180,1714,310,1749,351.2C1782.9,392,1817,343,1851,269.5C1885.7,196,1920,98,1954,122.5C1988.6,147,2023,294,2057,326.7C2091.4,359,2126,278,2160,220.5C2194.3,163,2229,131,2263,147C2297.1,163,2331,229,2366,285.8C2400,343,2434,392,2451,416.5L2468.6,441L2468.6,490L2451.4,490C2434.3,490,2400,490,2366,490C2331.4,490,2297,490,2263,490C2228.6,490,2194,490,2160,490C2125.7,490,2091,490,2057,490C2022.9,490,1989,490,1954,490C1920,490,1886,490,1851,490C1817.1,490,1783,490,1749,490C1714.3,490,1680,490,1646,490C1611.4,490,1577,490,1543,490C1508.6,490,1474,490,1440,490C1405.7,490,1371,490,1337,490C1302.9,490,1269,490,1234,490C1200,490,1166,490,1131,490C1097.1,490,1063,490,1029,490C994.3,490,960,490,926,490C891.4,490,857,490,823,490C788.6,490,754,490,720,490C685.7,490,651,490,617,490C582.9,490,549,490,514,490C480,490,446,490,411,490C377.1,490,343,490,309,490C274.3,490,240,490,206,490C171.4,490,137,490,103,490C68.6,490,34,490,17,490L0,490Z"/><defs><linearGradient id="sw-gradient-1" x1="0" x2="0" y1="1" y2="0"><stop stop-color="rgba(124.26, 0, 255, 1)" offset="0%"/><stop stop-color="rgba(202.013, 0, 255, 1)" offset="100%"/></linearGradient></defs><path style="transform:translate(0, 50px); opacity:0.9" fill="url(#sw-gradient-1)" d="M0,196L17.1,187.8C34.3,180,69,163,103,196C137.1,229,171,310,206,343C240,376,274,359,309,326.7C342.9,294,377,245,411,196C445.7,147,480,98,514,106.2C548.6,114,583,180,617,228.7C651.4,278,686,310,720,318.5C754.3,327,789,310,823,326.7C857.1,343,891,392,926,408.3C960,425,994,408,1029,367.5C1062.9,327,1097,261,1131,236.8C1165.7,212,1200,229,1234,236.8C1268.6,245,1303,245,1337,236.8C1371.4,229,1406,212,1440,204.2C1474.3,196,1509,196,1543,163.3C1577.1,131,1611,65,1646,89.8C1680,114,1714,229,1749,236.8C1782.9,245,1817,147,1851,114.3C1885.7,82,1920,114,1954,106.2C1988.6,98,2023,49,2057,65.3C2091.4,82,2126,163,2160,204.2C2194.3,245,2229,245,2263,212.3C2297.1,180,2331,114,2366,114.3C2400,114,2434,180,2451,212.3L2468.6,245L2468.6,490L2451.4,490C2434.3,490,2400,490,2366,490C2331.4,490,2297,490,2263,490C2228.6,490,2194,490,2160,490C2125.7,490,2091,490,2057,490C2022.9,490,1989,490,1954,490C1920,490,1886,490,1851,490C1817.1,490,1783,490,1749,490C1714.3,490,1680,490,1646,490C1611.4,490,1577,490,1543,490C1508.6,490,1474,490,1440,490C1405.7,490,1371,490,1337,490C1302.9,490,1269,490,1234,490C1200,490,1166,490,1131,490C1097.1,490,1063,490,1029,490C994.3,490,960,490,926,490C891.4,490,857,490,823,490C788.6,490,754,490,720,490C685.7,490,651,490,617,490C582.9,490,549,490,514,490C480,490,446,490,411,490C377.1,490,343,490,309,490C274.3,490,240,490,206,490C171.4,490,137,490,103,490C68.6,490,34,490,17,490L0,490Z"/></svg>